# xmcd
#
# Track frame offsets:
#	151
#	18174
#	32005
#	45076
#	61231
#	79414
#	94295
#	107978
#	122781
#	142682
#	155539
#	168306
#	180863
#	201820
#	213475
#	232480
#	249079
#	260210
#	274705
#	285008
#
# Disc length: 3970 seconds
#
# Revision: 1
# Processed by: cddbd v1.5.2PL0 Copyright (c) Steve Scherf et al.
# Submitted via: audiograbber 1.83.01
#
DISCID=0d0f8014
DTITLE=Whiskey River - Keeping It Country Whiskey River
DYEAR=1998
DGENRE=Country
TTITLE0=Wreek Of The Old ´97
TTITLE1=Cool Cat
TTITLE2=Two Feet Et
TTITLE3=Asoldier´s Prayer
TTITLE4=Lovely You
TTITLE5=All I Wanted
TTITLE6=The River Is To Wide
TTITLE7=Ne One To Say Good Mornig To
TTITLE8=Ain´t Got Time
TTITLE9=Restless And Weary
TTITLE10=Your Memory Is Still Burning In My Mind
TTITLE11=A Stroll Down The Sweet Bye And Bye
TTITLE12=A Jealous Woman
TTITLE13=Love This Lonely Man
TTITLE14=I´m Not Weak For You Anymore
TTITLE15=I Fly With The Wind
TTITLE16=How To Be Happy
TTITLE17=Mason-dixon Line
TTITLE18=Love, Love You Always
TTITLE19=Friday Night
EXTD=
EXTT0=
EXTT1=
EXTT2=
EXTT3=
EXTT4=
EXTT5=
EXTT6=
EXTT7=
EXTT8=
EXTT9=
EXTT10=
EXTT11=
EXTT12=
EXTT13=
EXTT14=
EXTT15=
EXTT16=
EXTT17=
EXTT18=
EXTT19=
PLAYORDER=
